<?xml version="1.0" encoding="UTF-8"?>
<svg width="21px" height="21px" viewBox="0 0 21 21" version="1.1" xmlns="http://www.w3.org/2000/svg" xmlns:xlink="http://www.w3.org/1999/xlink">
    <!-- Generator: Sketch 53 (72520) - https://sketchapp.com -->
    <title>icon-m. glass</title>
    <desc>Created with Sketch.</desc>
    <g id="Page-1" stroke="none" stroke-width="1" fill="none" fill-rule="evenodd">
        <path d="M19.9117141,19.502334 L13.8073958,13.6042298 C16.5884903,10.6896598 16.5517515,6.0503134 13.6925484,3.18211174 C12.287597,1.7748517 10.4197441,1 8.43308817,1 C6.44633575,1 4.57867773,1.7748517 3.17382087,3.1822854 C0.275331942,6.08988958 0.27542842,10.8194835 3.17389805,13.7251967 C4.57857932,15.1334022 6.44633575,15.9090084 8.43308817,15.9090084 C10.2818191,15.9090084 12.0270871,15.2366766 13.3927526,14.0088118 L19.5094007,19.918783 C19.5656474,19.9730434 19.6381024,20 19.7105574,20 C19.7863158,20 19.86197,19.9704192 19.9186817,19.9116241 C20.0297645,19.7966757 20.026658,19.6135177 19.9117141,19.502334 Z M3.58375594,13.3162944 C0.909964307,10.6359589 0.910060785,6.27324053 3.58365946,3.59101408 C4.87895396,2.29343272 6.60114437,1.57888114 8.43308817,1.57888114 C10.2649548,1.57888114 11.9873188,2.29343272 13.2827098,3.59082112 C15.9564822,6.27324053 15.9565786,10.6359589 13.2828063,13.3162944 C11.9872243,14.6148212 10.2649548,15.3301254 8.43308817,15.3301254 C6.60122155,15.3301254 4.87905044,14.6148212 3.58375594,13.3162944 Z" id="icon-m.-glass" stroke="#FFFFFF" stroke-width="0.826086957" fill="#FFFFFF" fill-rule="nonzero"></path>
    </g>
</svg>