<?xml version="1.0" encoding="UTF-8"?>
<svg width="78px" height="18px" viewBox="0 0 78 18" version="1.1" xmlns="http://www.w3.org/2000/svg" xmlns:xlink="http://www.w3.org/1999/xlink">
    <!-- Generator: Sketch 53 (72520) - https://sketchapp.com -->
    <title>logo - orderve - grey</title>
    <desc>Created with Sketch.</desc>
    <defs>
        <polygon id="path-1" points="0.361595418 0.320991429 12.1236121 0.320991429 12.1236121 17.5885492 0.361595418 17.5885492"></polygon>
        <polygon id="path-3" points="0.549170217 0.643521857 12.4020753 0.643521857 12.4020753 13.181099 0.549170217 13.181099"></polygon>
    </defs>
    <g id="Page-1" stroke="none" stroke-width="1" fill="none" fill-rule="evenodd">
        <g id="logo---orderve---grey">
            <path d="M6.34041978,15.4265696 C8.32083617,15.4265696 9.45788132,13.7116839 9.45788132,11.7109839 C9.45788132,9.71028386 8.32083617,7.97341243 6.34041978,7.97341243 C4.36000339,7.97341243 3.22295824,9.71761243 3.22295824,11.7109839 C3.22295824,13.7043553 4.3976539,15.4265696 6.34041978,15.4265696 M6.34041978,5.45238386 C10.3464332,5.45238386 12.6807643,8.20059814 12.6807643,11.7109839 C12.6807643,15.2213696 10.3539633,17.9769124 6.34794988,17.9769124 C2.34193651,17.9769124 7.53010035e-05,15.2286981 7.53010035e-05,11.7109839 C7.53010035e-05,8.19326957 2.3268763,5.45238386 6.34041978,5.45238386" id="Fill-1" fill="#969C94"></path>
            <path d="M13.6370117,17.7861497 L13.6370117,5.64270686 L16.7092926,5.64270686 L16.7092926,7.62142114 C17.4502545,6.30301114 18.8553712,5.46535543 20.3990418,5.42284971 C20.9110886,5.42871257 21.4186174,5.51005971 21.9050619,5.66469257 L21.3403043,8.43489257 C20.9532572,8.20477543 20.5059692,8.08825114 20.0526572,8.09777829 C18.2680234,8.09777829 16.7092926,9.51952114 16.7092926,13.4403069 L16.7092926,17.7568354 L13.6370117,17.7861497 Z" id="Fill-3" fill="#969C94"></path>
            <g id="Group-7" transform="translate(21.084281, 0.411939)">
                <mask id="mask-2" fill="white">
                    <use xlink:href="#path-1"></use>
                </mask>
                <g id="Clip-6"></g>
                <path d="M6.46097669,15.0146306 C8.07241816,15.0146306 9.33747502,13.7101449 9.33747502,11.2990449 C9.33747502,8.88794486 8.07241816,7.56147343 6.46097669,7.56147343 C4.84953522,7.56147343 3.56941816,8.89527343 3.56941816,11.2990449 C3.56941816,13.7028163 4.85706532,15.0146306 6.46097669,15.0146306 M6.04682117,5.04044486 C7.19290244,5.04410914 8.28552,5.51460343 9.0588613,6.337602 L9.0588613,0.320844857 L12.1236121,0.320844857 L12.1236121,17.3744306 L9.0663914,17.3744306 L9.0663914,16.1212449 C8.37889324,17.0717606 7.24711916,17.6221363 6.05435127,17.5869591 C2.2893011,17.5869591 0.361595418,15.0593349 0.361595418,11.3210306 C0.361595418,7.58345914 2.281771,5.04044486 6.04682117,5.04044486" id="Fill-5" fill="#969C94" mask="url(#mask-2)"></path>
            </g>
            <path d="M37.5300201,10.3187751 L42.8989816,10.3187751 C42.6203679,9.10956086 41.8522977,7.97363229 40.2182659,7.97363229 C38.8477876,7.995618 37.7024594,8.99523514 37.5300201,10.3187751 L37.5300201,10.3187751 Z M46.0390334,12.6785751 L37.447189,12.6785751 C37.4675202,14.2161094 38.7649565,15.4473094 40.3447716,15.4275223 C40.3605848,15.4275223 40.375645,15.4275223 40.3914582,15.4267894 C41.6934125,15.4473094 42.8809094,14.7041923 43.4034983,13.5426137 L45.8809013,14.4374323 C44.9998796,16.7056251 42.6956689,18.1434909 40.2107358,17.9771323 C35.9336388,17.9771323 34.1866555,14.5832709 34.1866555,11.7104709 C34.1866555,8.83840371 35.8959883,5.45260371 40.2107358,5.45260371 C44.3673512,5.45260371 46.0315033,8.80176086 46.0315033,11.4473751 L46.0390334,12.6785751 Z" id="Fill-8" fill="#969C94"></path>
            <path d="M47.0779614,17.7861497 L47.0779614,5.64270686 L50.1427122,5.64270686 L50.1427122,7.62142114 C50.8866861,6.30447686 52.2895438,5.46828686 53.8332144,5.42284971 C54.3445082,5.42797971 54.852037,5.50932686 55.3392345,5.66469257 L54.7744769,8.43489257 C54.3874298,8.20404257 53.9393888,8.08678543 53.4868298,8.09777829 C51.702196,8.09777829 50.1427122,9.51952114 50.1427122,13.4403069 L50.1427122,17.7568354 L47.0779614,17.7861497 Z" id="Fill-10" fill="#969C94"></path>
            <polygon id="Fill-12" fill="#969C94" points="58.7349332 5.64285343 61.2575168 14.1007577 63.7801004 5.64285343 66.897562 5.64285343 62.6423023 17.7862963 59.8719784 17.7862963 55.640062 5.64285343"></polygon>
            <g id="Group-16" transform="translate(65.511873, 4.809082)">
                <mask id="mask-4" fill="white">
                    <use xlink:href="#path-3"></use>
                </mask>
                <g id="Clip-15"></g>
                <path d="M3.88575768,5.50969329 L9.25471921,5.50969329 C8.9836356,4.300479 8.21556537,3.16455043 6.5815336,3.16455043 C5.20804329,3.18287186 4.05819697,4.18322186 3.88575768,5.50969329 L3.88575768,5.50969329 Z M12.4023012,7.86949329 L3.80970366,7.86949329 C3.83078794,9.40702757 5.12747122,10.6382276 6.70803928,10.6184404 C6.72385249,10.6184404 6.73891269,10.6184404 6.7547259,10.6177076 C8.05668025,10.6382276 9.24417707,9.89511043 9.76676604,8.73353186 L12.244169,9.62835043 C11.3631473,11.8965433 9.05893661,13.334409 6.57325048,13.1680504 C2.29690651,13.1680504 0.549170217,9.774189 0.549170217,6.901389 C0.549170217,4.02932186 2.259256,0.643521857 6.57325048,0.643521857 C10.738149,0.643521857 12.3947711,3.992679 12.3947711,6.63829329 L12.4023012,7.86949329 Z" id="Fill-14" fill="#969C94" mask="url(#mask-4)"></path>
            </g>
        </g>
    </g>
</svg>