<?xml version="1.0" encoding="UTF-8"?>
<svg width="94px" height="22px" viewBox="0 0 94 22" version="1.1" xmlns="http://www.w3.org/2000/svg" xmlns:xlink="http://www.w3.org/1999/xlink">
    <!-- Generator: Sketch 53 (72520) - https://sketchapp.com -->
    <title>logo - orderve - green</title>
    <desc>Created with Sketch.</desc>
    <defs>
        <polygon id="path-1" points="0.434829933 0.388568571 14.5790273 0.388568571 14.5790273 21.2914016 0.434829933 21.2914016"></polygon>
        <polygon id="path-3" points="0.660394565 0.779000143 14.913888 0.779000143 14.913888 15.9560672 0.660394565 15.9560672"></polygon>
    </defs>
    <g id="Page-1" stroke="none" stroke-width="1" fill="none" fill-rule="evenodd">
        <g id="logo---orderve---green">
            <path d="M7.62455543,18.6742684 C10.0060688,18.6742684 11.3734016,16.5983541 11.3734016,14.1764541 C11.3734016,11.7545541 10.0060688,9.65202557 7.62455543,9.65202557 C5.24304206,9.65202557 3.87570928,11.7634256 3.87570928,14.1764541 C3.87570928,16.5894827 5.28831798,18.6742684 7.62455543,18.6742684 M7.62455543,6.60025414 C12.4419133,6.60025414 15.2490203,9.92703986 15.2490203,14.1764541 C15.2490203,18.4258684 12.4509685,21.7615256 7.63361062,21.7615256 C2.81625276,21.7615256 9.05518396e-05,18.4347399 9.05518396e-05,14.1764541 C9.05518396e-05,9.91816843 2.79814239,6.60025414 7.62455543,6.60025414" id="Fill-1" fill="#283423"></path>
            <path d="M16.3989381,21.5306023 L16.3989381,6.83064514 L20.0934532,6.83064514 L20.0934532,9.22593086 C20.9844833,7.62996086 22.6741806,6.61595657 24.5304933,6.56450229 C25.1462458,6.57159943 25.7565652,6.67007229 26.3415301,6.85725943 L25.6623913,10.2106594 C25.1969548,9.93209657 24.6590769,9.79104086 24.1139548,9.80257371 C21.9678763,9.80257371 20.0934532,11.5236309 20.0934532,16.2698451 L20.0934532,21.4951166 L16.3989381,21.5306023 Z" id="Fill-3" fill="#283423"></path>
            <g id="Group-7" transform="translate(25.354515, 0.498663)">
                <mask id="mask-2" fill="white">
                    <use xlink:href="#path-1"></use>
                </mask>
                <g id="Clip-6"></g>
                <path d="M7.76952893,18.1756054 C9.70733829,18.1756054 11.2286092,16.5964911 11.2286092,13.6777911 C11.2286092,10.7590911 9.70733829,9.15336257 7.76952893,9.15336257 C5.83171957,9.15336257 4.29233829,10.7679626 4.29233829,13.6777911 C4.29233829,16.5876197 5.84077475,18.1756054 7.76952893,18.1756054 M7.27149381,6.10159114 C8.64969281,6.10602686 9.9636,6.67557257 10.8935674,7.671834 L10.8935674,0.388391143 L14.5790273,0.388391143 L14.5790273,21.0322054 L10.9026226,21.0322054 L10.9026226,19.5151911 C10.0758843,20.6658154 8.71489013,21.3320597 7.280549,21.2894769 C2.75295702,21.2894769 0.434829933,18.2297211 0.434829933,13.7044054 C0.434829933,9.17997686 2.74390184,6.10159114 7.27149381,6.10159114" id="Fill-5" fill="#283423" mask="url(#mask-2)"></path>
            </g>
            <path d="M45.1310368,12.4911489 L51.5873829,12.4911489 C51.2523411,11.0273631 50.3287124,9.65229171 48.3637375,9.65229171 C46.715694,9.678906 45.3384005,10.8889689 45.1310368,12.4911489 L45.1310368,12.4911489 Z M55.3633946,15.3477489 L45.0314298,15.3477489 C45.0558788,17.2089746 46.616087,18.6993746 48.5158645,18.6754217 C48.5348804,18.6754217 48.5529908,18.6754217 48.5720067,18.6745346 C50.137648,18.6993746 51.5656505,17.7998117 52.1940803,16.3936903 L55.1732358,17.4768917 C54.1137793,20.2225989 51.342893,21.9631731 48.3546823,21.7617917 C43.2113378,21.7617917 41.1105351,17.6534331 41.1105351,14.1758331 C41.1105351,10.6991203 43.1660619,6.60052029 48.3546823,6.60052029 C53.3531438,6.60052029 55.3543395,10.6547631 55.3543395,13.8573489 L55.3633946,15.3477489 Z" id="Fill-8" fill="#283423"></path>
            <path d="M56.6127384,21.5306023 L56.6127384,6.83064514 L60.2981982,6.83064514 L60.2981982,9.22593086 C61.1928504,7.63173514 62.8798312,6.61950514 64.7361439,6.56450229 C65.3509909,6.57071229 65.9613103,6.66918514 66.5471807,6.85725943 L65.8680419,10.2106594 C65.4026054,9.93120943 64.863822,9.78926657 64.3196054,9.80257371 C62.1735268,9.80257371 60.2981982,11.5236309 60.2981982,16.2698451 L60.2981982,21.4951166 L56.6127384,21.5306023 Z" id="Fill-10" fill="#283423"></path>
            <polygon id="Fill-12" fill="#283423" points="70.6306159 6.83082257 73.6641025 17.0693383 76.6975891 6.83082257 80.4464353 6.83082257 75.3293508 21.5307797 71.9979487 21.5307797 66.9089353 6.83082257"></polygon>
            <g id="Group-16" transform="translate(78.780100, 5.821520)">
                <mask id="mask-4" fill="white">
                    <use xlink:href="#path-3"></use>
                </mask>
                <g id="Clip-15"></g>
                <path d="M4.67274657,6.66962871 L11.1290927,6.66962871 C10.8031061,5.205843 9.87947734,3.83077157 7.91450242,3.83077157 C6.26283687,3.85295014 4.88011028,5.06390014 4.67274657,6.66962871 L4.67274657,6.66962871 Z M14.9141596,9.52622871 L4.58128921,9.52622871 C4.60664373,11.3874544 6.1659464,12.8778544 8.06662952,12.8539016 C8.0856454,12.8539016 8.10375577,12.8539016 8.12277166,12.8530144 C9.68841296,12.8778544 11.1164155,11.9782916 11.7448452,10.5721701 L14.7240008,11.6553716 C13.6645442,14.4010787 10.8936579,16.141653 7.90454172,15.9402716 C2.76210276,15.9402716 0.660394565,11.831913 0.660394565,8.354313 C0.660394565,4.87760014 2.71682684,0.779000143 7.90454172,0.779000143 C12.912964,0.779000143 14.9051044,4.833243 14.9051044,8.03582871 L14.9141596,9.52622871 Z" id="Fill-14" fill="#283423" mask="url(#mask-4)"></path>
            </g>
        </g>
    </g>
</svg>